# xmcd CD database file
#
# Track frame offsets:
#	150
#	11585
#	30547
#	47955
#	65920
#	81832
#	100492
#	116707
#	131017
#	143650
#	164330
#	178702
#
# Disc length: 2585 seconds
#
# Revision: 1
# Processed by: cddbd v1.5.1PL0 Copyright (c) Steve Scherf et al.
# Submitted via: CDex 1.51
#
DISCID=aa0a170c
DTITLE=Arno - Le European-Cowboy
DYEAR=1999
DGENRE=Pop
TTITLE0=Fantastique
TTITLE1=In My Bed
TTITLE2=European Cowboy
TTITLE3=Mercy
TTITLE4=Sous Ton Balcon
TTITLE5=Birthday
TTITLE6=High And Dry
TTITLE7=Sitting in A car
TTITLE8=J'ai un probleme
TTITLE9=Tatouages Du Passe
TTITLE10=Cry Like A Man
TTITLE11=Oh La La La
EXTD=YEAR: 1999
EXTT0=
EXTT1=
EXTT2=
EXTT3=
EXTT4=
EXTT5=
EXTT6=
EXTT7=
EXTT8=
EXTT9=
EXTT10=
EXTT11=
PLAYORDER=
